<?xml version="1.0" encoding="utf-8"?>
<!-- Generator: Adobe Illustrator 24.2.3, SVG Export Plug-In . SVG Version: 6.00 Build 0)  -->
<svg version="1.1" id="Capa_1" xmlns="http://www.w3.org/2000/svg" xmlns:xlink="http://www.w3.org/1999/xlink" x="0px" y="0px"
	 viewBox="0 0 595.3 211" style="enable-background:new 0 0 595.3 211;" xml:space="preserve">
<style type="text/css">
	.st0{fill:#B7E2F7;}
	.st1{fill:#E4EFF4;stroke:#000000;stroke-miterlimit:10;}
	.st2{fill:none;stroke:#000000;stroke-miterlimit:10;}
</style>
<rect y="0" class="st0" width="595.3" height="211"/>
<ellipse class="st1" cx="47" cy="105.5" rx="16" ry="76"/>
<ellipse class="st1" cx="127" cy="105.5" rx="16" ry="76"/>
<ellipse class="st1" cx="551" cy="103.5" rx="16" ry="76"/>
<ellipse class="st1" cx="471" cy="103.5" rx="16" ry="76"/>
<ellipse class="st1" cx="270" cy="105.5" rx="10" ry="37"/>
<ellipse class="st1" cx="329" cy="105.5" rx="10" ry="37"/>
<line class="st2" x1="127" y1="29.5" x2="47" y2="29.5"/>
<line class="st2" x1="127" y1="181.5" x2="47" y2="181.5"/>
<line class="st2" x1="551" y1="27.5" x2="471" y2="27.5"/>
<line class="st2" x1="551" y1="179.5" x2="467" y2="179.5"/>
<line class="st2" x1="127" y1="181.5" x2="275" y2="142.5"/>
<line class="st2" x1="127" y1="29.5" x2="275" y2="68.5"/>
<line class="st2" x1="471" y1="27.5" x2="329" y2="68.5"/>
<line class="st2" x1="467" y1="179.5" x2="329" y2="142.5"/>
<line class="st2" x1="275" y1="142.5" x2="329" y2="142.5"/>
<line class="st2" x1="275" y1="68.5" x2="329" y2="68.5"/>
</svg>
